<svg width="12" height="10" viewBox="0 0 12 10" fill="none" xmlns="http://www.w3.org/2000/svg">
<path d="M5.2822 4.54545H6.7178V1.36364C6.7178 1.17424 6.64901 1.01326 6.51144 0.880682C6.37386 0.748106 6.20338 0.681818 6 0.681818C5.79662 0.681818 5.62614 0.747159 5.48856 0.877841C5.35099 1.00852 5.2822 1.17045 5.2822 1.36364V4.54545ZM2.41098 6.59091H9.58902V5.22727H2.41098V6.59091ZM1.64532 9.31818H3.24842V8.29545C3.24842 8.19886 3.28301 8.1179 3.3522 8.05256C3.4214 7.98722 3.50713 7.95455 3.60941 7.95455C3.7117 7.95455 3.79674 7.98722 3.86453 8.05256C3.93232 8.1179 3.96622 8.19886 3.96622 8.29545V9.31818H5.6411V8.29545C5.6411 8.19886 5.67569 8.1179 5.74488 8.05256C5.81408 7.98722 5.89981 7.95455 6.00209 7.95455C6.10438 7.95455 6.18942 7.98722 6.25721 8.05256C6.32501 8.1179 6.3589 8.19886 6.3589 8.29545V9.31818H8.03378V8.29545C8.03378 8.19886 8.06837 8.1179 8.13756 8.05256C8.20676 7.98722 8.2925 7.95455 8.39477 7.95455C8.49706 7.95455 8.5821 7.98722 8.64989 8.05256C8.71769 8.1179 8.75158 8.19886 8.75158 8.29545V9.31818H10.3547L9.75651 7.04545H2.24349L1.64532 9.31818ZM10.0436 10H1.95637C1.64532 10 1.39409 9.88258 1.20267 9.64773C1.01126 9.41288 0.95543 9.15152 1.03519 8.86364L1.69317 6.36364V5.45455C1.69317 5.20455 1.78689 4.99053 1.97431 4.8125C2.16174 4.63447 2.38705 4.54545 2.65025 4.54545H4.56439V1.36364C4.56439 0.984848 4.70396 0.662879 4.98311 0.397727C5.26226 0.132576 5.60122 0 6 0C6.39878 0 6.73774 0.132576 7.01689 0.397727C7.29604 0.662879 7.43561 0.984848 7.43561 1.36364V4.54545H9.34975C9.61295 4.54545 9.83826 4.63447 10.0257 4.8125C10.2131 4.99053 10.3068 5.20455 10.3068 5.45455V6.36364L10.9648 8.86364C11.0446 9.15152 10.9887 9.41288 10.7973 9.64773C10.6059 9.88258 10.3547 10 10.0436 10Z" fill="white"/>
</svg>